<?xml version="1.0" encoding="utf-8"?>
<!-- Svg Vector Icons : http://www.onlinewebfonts.com/icon -->
<!DOCTYPE svg PUBLIC "-//W3C//DTD SVG 1.1//EN" "http://www.w3.org/Graphics/SVG/1.1/DTD/svg11.dtd">
<svg version="1.1" xmlns="http://www.w3.org/2000/svg" xmlns:xlink="http://www.w3.org/1999/xlink" x="0px" y="0px" viewBox="0 0 1000 1000" enable-background="new 0 0 1000 1000" xml:space="preserve">
<metadata> Svg Vector Icons : http://www.onlinewebfonts.com/icon </metadata>
<g><path d="M990,405.9c-11.8,20.1-24.5,27.3-40.6,23.1c-17.5-4.6-25-17.1-25-41.7c0-54.6,0.6-109.2-0.3-163.8c-0.3-20.1,5.9-34.5,24.4-42.9c5.8,0,11.7,0,17.5,0c10.9,5.1,18.9,13.2,24.1,24.1C990,271.8,990,338.9,990,405.9z"/><path d="M10,594.1C21.8,574,34.5,566.8,50.6,571c17.5,4.6,25,17.1,25,41.7c0,54.6-0.6,109.2,0.3,163.8c0.3,20.1-5.9,34.5-24.4,42.9c-5.8,0-11.7,0-17.5,0c-10.9-5.1-18.9-13.2-24.1-24.1C10,728.2,10,661.1,10,594.1z"/><path d="M211.7,594.1c-4-21.4-9.8-41.9-11.4-62.8c-9-117.9,34.9-211.2,132.7-278.1c48.6-33.2,103.4-48.1,162-48.4c106.1-0.5,212.2-0.2,318.3-0.1c53.8,0,91.6,37.8,91.4,91.7c-0.1,15.2-0.1,30.8-3.4,45.5c-8.6,38.5-42.5,65.1-82.2,66.1c-13.8,0.4-27.7,0.1-42.6,0.1c2.8,11.6,5.7,22.3,8,33.1c25.2,118.6-25.6,240.9-127.6,307.7c-49.6,32.5-104.2,48.2-163.1,48.5c-101.7,0.4-203.4,0.1-305.1,0.1c-56,0-93.3-37.2-93-93.4c0.1-14.5,0.1-29.4,3.3-43.4c8.7-39,42.8-65.8,82.9-66.6C191.8,593.9,201.9,594.1,211.7,594.1z M220,500.8c-0.1,151.7,122.8,274.8,274.5,274.8c150.8,0,274.2-122.5,274.6-272.6c0.4-152.8-122-276.3-274-276.5C343.4,226.3,220.1,349.2,220,500.8z M609.5,226.6c2.7,2.2,3.2,2.8,3.8,3c69.6,31.4,120.4,81.7,152.2,151.2c1.2,2.6,5.9,5.1,9,5.2c14.9,0.5,29.9,0.5,44.8,0.1c29.5-0.7,55.3-21.1,61.2-49.9c2.7-13,2.2-26.8,2.2-40.2c0.2-41.5-27.7-69.4-68.9-69.4c-59.7-0.1-119.5,0-179.2,0C627,226.6,619.4,226.6,609.5,226.6z M377.3,775.6c0.1-0.6,0.3-1.2,0.4-1.8c-2.4-1.2-4.8-2.5-7.3-3.7c-57.5-26.9-102.1-67.8-133.6-122.9c-6-10.5-9.8-25-18.9-30c-9.5-5.2-24.1-1.4-36.5-1.2c-29.9,0.6-56,21.1-62,50.4c-2.6,12.7-2.1,26-2.1,39.1c-0.2,42.3,27.4,70,69.4,70.1c60.5,0.1,120.9,0,181.4,0C371.1,775.6,374.2,775.6,377.3,775.6z"/><path d="M459.5,500.6c0-20.9,16.9-37.8,37.8-37.8c20.9,0,37.8,16.9,37.8,37.8c0,20.9-16.9,37.8-37.8,37.8C476.4,538.4,459.5,521.5,459.5,500.6L459.5,500.6z M629.7,353.2l-74,75.8c-13.1-10.9-29.4-18.1-47.1-20.4V296.8c-128.2,0-158.7,71.4-158.7,71.4l74.6,72.7c-11.6,13.8-19.3,31.1-21.4,50H293.4c0,128.2,71.5,158.7,71.5,158.7l73-74.9c13.9,11,30.9,18.1,49.6,19.8v109.9c128.2,0,158.7-71.4,158.7-71.4l-76.2-74.4c10.3-13.2,17.2-29.2,19.1-46.8h112C701.2,383.7,629.7,353.2,629.7,353.2z M497.3,557.3c-31.3,0-56.8-25.4-56.8-56.7c0-31.3,25.5-56.7,56.8-56.7c31.3,0,56.7,25.5,56.7,56.7C554,531.9,528.6,557.3,497.3,557.3z M590.6,530.9h13.3V572h-13.3V530.9z M615,525.6h15v51.6h-15V525.6z M643.8,518.9h19.4v65h-19.4V518.9z M676.5,516.9h19.9V586h-19.9V516.9z M424.7,594.6h41v13.3h-41V594.6z M419.4,619h51.5V634h-51.5V619z M412.7,647.8h65v19.4h-65V647.8z M410.6,680.5h69.1v19.9h-69.1V680.5z M388.4,429.1h13.2v41h-13.2V429.1L388.4,429.1z M362.3,423.9h15v51.5h-15V423.9L362.3,423.9z M329.1,417.2h19.4v64.9h-19.4V417.2z M295.9,415.1h19.9v69.1h-19.9V415.1z M530.6,396.8h41V410h-41V396.8z M525.3,370.7h51.5v15h-51.5V370.7L525.3,370.7z M518.6,337.5h65v19.4h-65V337.5L518.6,337.5z M516.6,304.3h69.1v19.9h-69.1V304.3L516.6,304.3z"/></g>
</svg>